<svg width="36" height="36" viewBox="0 0 36 36" fill="none" xmlns="http://www.w3.org/2000/svg">
<rect width="36" height="36" rx="18" fill="url(#paint0_linear_59_306)"/>
<path d="M0 17.2764C0 9.13568 0 5.04723 2.51331 2.51457C5.06279 1.72524e-07 9.13109 0 17.2858 0H18.7323C26.8689 0 30.9553 1.72524e-07 33.4867 2.51457C36 5.02914 36 9.13568 36 17.2764V18.7236C36 26.8643 36 30.9528 33.4867 33.4854C30.9734 36 26.8689 36 18.7323 36H17.2858C9.14917 36 5.06279 36 2.5314 33.4854C1.72437e-07 30.9528 0 26.8824 0 18.7236V17.2764Z" fill="url(#paint1_linear_59_306)"/>
<path fill-rule="evenodd" clip-rule="evenodd" d="M8.51239 16.7489C14.418 14.2087 18.3559 12.534 20.3263 11.7249C25.9521 9.4147 27.1211 9.01339 27.883 9.00014C28.0506 8.99723 28.4253 9.03823 28.668 9.23267C28.873 9.39685 28.9294 9.61863 28.9563 9.77429C28.9833 9.92995 29.0169 10.2846 28.9902 10.5616C28.6854 13.7241 27.3662 21.3986 26.6951 24.9406C26.4111 26.4394 25.852 26.9419 25.3107 26.9911C24.1343 27.098 23.2409 26.2235 22.1015 25.4861C20.3186 24.3323 19.3113 23.614 17.5807 22.488C15.5806 21.1868 16.8772 20.4716 18.017 19.3027C18.3153 18.9969 23.4986 14.3423 23.5989 13.92C23.6115 13.8672 23.6231 13.6704 23.5046 13.5664C23.3862 13.4625 23.2114 13.498 23.0852 13.5263C22.9064 13.5664 20.0581 15.425 14.5404 19.1022C13.7319 19.6503 12.9996 19.9174 12.3435 19.9034C11.6202 19.888 10.2288 19.4996 9.19447 19.1677C7.92583 18.7606 6.91753 18.5453 7.00533 17.8539C7.05106 17.4937 7.55341 17.1254 8.51239 16.7489Z" fill="white"/>
<defs>
<linearGradient id="paint0_linear_59_306" x1="1800" y1="0" x2="1800" y2="3573.3" gradientUnits="userSpaceOnUse">
<stop stop-color="#2AABEE"/>
<stop offset="1" stop-color="#229ED9"/>
</linearGradient>
<linearGradient id="paint1_linear_59_306" x1="1800" y1="0" x2="1800" y2="3573.3" gradientUnits="userSpaceOnUse">
<stop stop-color="#2AABEE"/>
<stop offset="1" stop-color="#229ED9"/>
</linearGradient>
</defs>
</svg>
