<svg width="32" height="34" viewBox="0 0 32 34" fill="none" xmlns="http://www.w3.org/2000/svg">
<path d="M18.0333 28.8095C18.0333 29.6511 17.3468 30.3333 16.5 30.3333C15.6532 30.3333 14.9667 29.6511 14.9667 28.8095M18.0333 28.8095C18.0333 27.9679 17.3468 27.2857 16.5 27.2857M18.0333 28.8095H24.1667M14.9667 28.8095C14.9667 27.9679 15.6532 27.2857 16.5 27.2857M14.9667 28.8095H8.83333M16.5 27.2857V20.4286M18.0333 18.9048C18.0333 19.7463 17.3468 20.4286 16.5 20.4286M18.0333 18.9048C18.0333 18.0632 17.3468 17.381 16.5 17.381M18.0333 18.9048H24.1667M16.5 20.4286C15.6532 20.4286 14.9667 19.7463 14.9667 18.9048M14.9667 18.9048C14.9667 18.0632 15.6532 17.381 16.5 17.381M14.9667 18.9048H8.83333M16.5 17.381V6.71429M18.0333 5.19048C18.0333 6.03205 17.3468 6.71429 16.5 6.71429M18.0333 5.19048C18.0333 4.3489 17.3468 3.66667 16.5 3.66667C15.6532 3.66667 14.9667 4.3489 14.9667 5.19048M18.0333 5.19048H24.1667M16.5 6.71429C15.6532 6.71429 14.9667 6.03205 14.9667 5.19048M14.9667 5.19048H8.83333M8.83333 5.19048V1.7619C8.83333 1.34112 8.49008 1 8.06667 1H5.76667C5.34325 1 5 1.34112 5 1.7619V8.61905C5 9.03984 5.34325 9.38095 5.76667 9.38095H8.06667C8.49008 9.38095 8.83333 9.03984 8.83333 8.61905V5.19048ZM24.1667 5.19048V8.61905C24.1667 9.03984 24.5099 9.38095 24.9333 9.38095H27.2333C27.6568 9.38095 28 9.03984 28 8.61905V1.7619C28 1.34112 27.6568 1 27.2333 1H24.9333C24.5099 1 24.1667 1.34112 24.1667 1.7619V5.19048ZM24.1667 18.9048V22.3333C24.1667 22.7541 24.5099 23.0952 24.9333 23.0952H27.2333C27.6568 23.0952 28 22.7541 28 22.3333V15.4762C28 15.0554 27.6568 14.7143 27.2333 14.7143H24.9333C24.5099 14.7143 24.1667 15.0554 24.1667 15.4762V18.9048ZM8.83333 18.9048V15.4762C8.83333 15.0554 8.49008 14.7143 8.06667 14.7143H5.76667C5.34325 14.7143 5 15.0554 5 15.4762V22.3333C5 22.7541 5.34325 23.0952 5.76667 23.0952H8.06667C8.49008 23.0952 8.83333 22.7541 8.83333 22.3333V18.9048ZM8.83333 28.8095V25.381C8.83333 24.9602 8.49008 24.619 8.06667 24.619H5.76667C5.34325 24.619 5 24.9602 5 25.381V32.2381C5 32.6589 5.34325 33 5.76667 33H8.06667C8.49008 33 8.83333 32.6589 8.83333 32.2381V28.8095ZM24.1667 28.8095V32.2381C24.1667 32.6589 24.5099 33 24.9333 33H27.2333C27.6568 33 28 32.6589 28 32.2381V25.381C28 24.9602 27.6568 24.619 27.2333 24.619H24.9333C24.5099 24.619 24.1667 24.9602 24.1667 25.381V28.8095Z" stroke="#F26B0B" stroke-width="2" stroke-linecap="round" stroke-linejoin="round"/>
</svg>
