<svg width="49" height="50" viewBox="0 0 49 50" fill="none" xmlns="http://www.w3.org/2000/svg">
<path d="M14.1799 38.5544V33.3316H15.672M14.1799 38.5544H43.2751M14.1799 38.5544C11.2957 38.5544 8.95767 40.8927 8.95767 43.7772C8.95767 46.6617 11.2957 49 14.1799 49H42.7778C45.6619 49 48 46.6617 48 43.7772V43.2798C48 40.67 45.8846 38.5544 43.2751 38.5544M43.2751 38.5544V33.3316M43.2751 33.3316H46.5079C47.332 33.3316 48 32.6635 48 31.8394V27.3627C48 26.5386 47.332 25.8705 46.5079 25.8705H32.0847M43.2751 33.3316H32.0847M32.0847 25.8705V33.3316M32.0847 25.8705V15.4249C32.0847 14.8754 31.6393 14.4301 31.0899 14.4301H24.0417C23.7778 14.4301 23.5248 14.5349 23.3383 14.7214L21.6402 16.4197M32.0847 33.3316H15.672M15.672 33.3316V22.8007C15.672 22.5368 15.7768 22.2838 15.9633 22.0972L17.9101 20.1503M21.6402 16.4197L6.95058 1.72844C6.48422 1.26203 5.8517 1 5.19217 1H3.48677C2.11337 1 1 2.11349 1 3.48705V23.8808M21.6402 16.4197L17.9101 20.1503M12.1905 20.8861L11.3881 23.8808L9.79646 29.8216C9.37326 31.4012 7.56709 32.1494 6.15104 31.3318L2.24339 29.0755C1.47398 28.6312 1 27.8102 1 26.9216V23.8808M11.3881 23.8808H3.48677M1 23.8808H3.48677M3.48677 23.8808L5.72487 7.96373L17.9101 20.1503M21.6402 43.7772C21.6402 45.2881 20.4155 46.513 18.9048 46.513C17.394 46.513 16.1693 45.2881 16.1693 43.7772C16.1693 42.2663 17.394 41.0414 18.9048 41.0414C20.4155 41.0414 21.6402 42.2663 21.6402 43.7772ZM31.5873 43.7772C31.5873 45.2881 30.3626 46.513 28.8519 46.513C27.3411 46.513 26.1164 45.2881 26.1164 43.7772C26.1164 42.2663 27.3411 41.0414 28.8519 41.0414C30.3626 41.0414 31.5873 42.2663 31.5873 43.7772ZM41.5344 43.7772C41.5344 45.2881 40.3097 46.513 38.7989 46.513C37.2882 46.513 36.0635 45.2881 36.0635 43.7772C36.0635 42.2663 37.2882 41.0414 38.7989 41.0414C40.3097 41.0414 41.5344 42.2663 41.5344 43.7772ZM19.1961 23.5895L24.8304 17.9546C25.0169 17.768 25.2699 17.6632 25.5337 17.6632H27.8571C28.4065 17.6632 28.8519 18.1086 28.8519 18.658V24.8756C28.8519 25.4251 28.4065 25.8705 27.8571 25.8705H19.8995C19.3501 25.8705 18.9048 25.4251 18.9048 24.8756V24.2929C18.9048 24.0291 19.0096 23.776 19.1961 23.5895Z" stroke="#F26B0B" stroke-width="2" stroke-linecap="round" stroke-linejoin="round"/>
</svg>
