<svg width="50" height="48" viewBox="0 0 50 48" fill="none" xmlns="http://www.w3.org/2000/svg">
<path d="M29.8 12.125H35.4094C35.9964 12.125 36.2899 12.125 36.5662 12.1906C36.811 12.2488 37.0452 12.3448 37.2599 12.475C37.5021 12.6219 37.7096 12.8272 38.1247 13.238L47.8753 22.887C48.2904 23.2978 48.4979 23.5031 48.6463 23.7428C48.7779 23.9553 48.8749 24.187 48.9337 24.4293C49 24.7027 49 24.9931 49 25.574V32.3125C49 33.4191 49 33.9724 48.8173 34.4089C48.5737 34.9908 48.1065 35.4532 47.5184 35.6942C47.0774 35.875 46.5183 35.875 45.4 35.875M33.4 35.875H29.8M29.8 35.875V12.6C29.8 9.93975 29.8 8.60963 29.2768 7.59355C28.8166 6.69978 28.0823 5.97312 27.1792 5.51772C26.1524 5 24.8083 5 22.12 5H8.68C5.99175 5 4.64762 5 3.62085 5.51772C2.71767 5.97312 1.98336 6.69978 1.52317 7.59355C1 8.60963 1 9.93975 1 12.6V31.125C1 33.7484 3.14903 35.875 5.8 35.875M29.8 35.875H20.2M20.2 35.875C20.2 39.81 16.9765 43 13 43C9.02355 43 5.8 39.81 5.8 35.875M20.2 35.875C20.2 31.94 16.9765 28.75 13 28.75C9.02355 28.75 5.8 31.94 5.8 35.875M45.4 37.0625C45.4 40.3417 42.7137 43 39.4 43C36.0863 43 33.4 40.3417 33.4 37.0625C33.4 33.7833 36.0863 31.125 39.4 31.125C42.7137 31.125 45.4 33.7833 45.4 37.0625Z" stroke="#F26B0B" stroke-width="2" stroke-linecap="round" stroke-linejoin="round"/>
</svg>
